# xmcd
#
# Track frame offsets:
#	150
#	8742
#	19321
#	28027
#	39433
#	54503
#	66171
#	76090
#	90221
#	100365
#	109171
#	117877
#	127847
#
# Disc length: 1771 seconds
#
# Revision: 0
# Processed by: cddbd v1.5.2PL0 Copyright (c) Steve Scherf et al.
# Submitted via: EZCDAudioConverter 1.2.5.1
#
DISCID=9506e90d
DTITLE=Various Artist - A Tribute to Johnny Rebel
DYEAR=1999
DGENRE=Country
TTITLE0=Colonel Lou - Johnny Rebel
TTITLE1=Bobby Horton - Everybody's Dixie
TTITLE2=Hoyt Axton - I'm a Good Old Rebel
TTITLE3=Bobby Horton - Wait for the Wagon
TTITLE4=Bobby Horton - For Bales
TTITLE5=Bobby Horton - Rebel Soldier
TTITLE6=National Knights Of The Ku Klux Klan - When Johnny Comes Marching Home
TTITLE7=Johnny Freedom - Ain't I Right
TTITLE8=National Knights Of The Ku Klux Klan - Nigger
TTITLE9=Jesse James - The South's Gonna Rise Again
TTITLE10=White Riders - Stand up and be Counted
TTITLE11=National Knights Of The Ku Klux Klan - Segregation Wagon
TTITLE12=National Knights Of The Ku Klux Klan - Pull the Trigger
EXTD=
EXTT0=
EXTT1=
EXTT2=
EXTT3=
EXTT4=
EXTT5=
EXTT6=
EXTT7=
EXTT8=
EXTT9=
EXTT10=
EXTT11=
EXTT12=
PLAYORDER=
